<svg width="113" height="30" viewBox="0 0 113 30" fill="none" xmlns="http://www.w3.org/2000/svg">
<mask id="path-1-outside-1_14_19" maskUnits="userSpaceOnUse" x="0" y="0" width="113" height="30" fill="black">
<rect fill="white" width="113" height="30"/>
<path d="M1.20459 28V3.11719H9.56152C10.9173 3.11719 12.1478 3.25391 13.2529 3.52734C14.3695 3.80078 15.3208 4.21663 16.1069 4.7749C16.8931 5.33317 17.4969 6.03955 17.9185 6.89404C18.3514 7.74854 18.5679 8.75684 18.5679 9.91895C18.5565 10.6709 18.4198 11.383 18.1577 12.0552C17.9071 12.716 17.5311 13.297 17.0298 13.7983C16.7563 14.0718 16.443 14.3224 16.0898 14.5503C15.748 14.7782 15.3664 14.9718 14.9448 15.1313V15.1484C15.7651 15.3763 16.4146 15.6668 16.8931 16.02C17.383 16.3732 17.7931 16.7834 18.1235 17.2505C18.4653 17.7518 18.716 18.2987 18.8755 18.8911C19.0464 19.4722 19.1318 20.076 19.1318 20.7026C19.1318 21.8989 18.9268 22.9528 18.5166 23.8643C18.1064 24.7757 17.5197 25.5391 16.7563 26.1543C15.993 26.7695 15.0645 27.231 13.9707 27.5386C12.877 27.8462 11.6465 28 10.2793 28H1.20459ZM6.02393 17.0283V24.1206H10.2964C10.923 24.1206 11.4813 24.0409 11.9712 23.8813C12.4725 23.7218 12.8883 23.5054 13.2188 23.2319C13.5833 22.9243 13.8568 22.554 14.0391 22.1211C14.2327 21.6882 14.3296 21.2039 14.3296 20.6685C14.3296 20.1102 14.2555 19.6089 14.1074 19.1646C13.9707 18.7202 13.7485 18.3442 13.4409 18.0366C13.1333 17.7176 12.7345 17.4727 12.2446 17.3018C11.7547 17.1309 11.1737 17.0397 10.5015 17.0283H6.02393ZM6.02393 13.5591H9.5957C10.3249 13.5477 10.9686 13.4622 11.5269 13.3027C12.0851 13.1318 12.5352 12.8812 12.877 12.5508C13.1618 12.2887 13.3783 11.9697 13.5264 11.5938C13.6859 11.2178 13.7656 10.7905 13.7656 10.312C13.7656 9.81071 13.6973 9.37207 13.5605 8.99609C13.4352 8.62012 13.2415 8.3068 12.9795 8.05615C12.6377 7.70296 12.1763 7.44661 11.5952 7.28711C11.0256 7.1276 10.3534 7.04215 9.57861 7.03076H6.02393V13.5591ZM29.0419 1.75H39.3813V24.1377H44.6791V28H29.0419V24.1377H34.579V5.62939H29.0419V1.75ZM52.9239 28C52.81 27.7721 52.7132 27.5101 52.6334 27.2139C52.5536 26.9176 52.4853 26.6043 52.4283 26.2739C52.1663 26.5588 51.8644 26.8265 51.5226 27.0771C51.1808 27.3278 50.8048 27.5443 50.3946 27.7266C49.9731 27.9202 49.5117 28.0684 49.0104 28.1709C48.5091 28.2848 47.9679 28.3418 47.3868 28.3418C46.4412 28.3418 45.5696 28.2051 44.7721 27.9316C43.9859 27.6582 43.308 27.2765 42.7384 26.7866C42.1687 26.2967 41.7244 25.7157 41.4054 25.0435C41.0864 24.3599 40.9269 23.6193 40.9269 22.8218C40.9269 21.7964 41.1262 20.8906 41.525 20.1045C41.9238 19.307 42.5219 18.6519 43.3194 18.1392C44.0372 17.672 44.9202 17.3188 45.9684 17.0796C47.0279 16.8289 48.2413 16.7036 49.6085 16.7036H52.2574V15.6099C52.2574 15.1769 52.1891 14.7896 52.0523 14.4478C51.9156 14.0946 51.7105 13.7926 51.4371 13.542C51.1523 13.2799 50.7934 13.0806 50.3605 12.9438C49.9389 12.7957 49.4433 12.7217 48.8736 12.7217C48.3723 12.7217 47.9394 12.7843 47.5748 12.9097C47.2102 13.0236 46.914 13.1888 46.6861 13.4053C46.4811 13.599 46.3272 13.8325 46.2247 14.106C46.1336 14.3794 46.088 14.6813 46.088 15.0117H41.337C41.337 14.2256 41.5079 13.4793 41.8497 12.7729C42.2029 12.0666 42.7156 11.4456 43.3878 10.9102C44.0486 10.3747 44.8575 9.95312 45.8146 9.64551C46.783 9.3265 47.8881 9.16699 49.13 9.16699C50.2465 9.16699 51.2833 9.30371 52.2403 9.57715C53.2088 9.85059 54.0462 10.255 54.7525 10.7905C55.4589 11.326 56.0115 12.0039 56.4103 12.8242C56.809 13.6331 57.0084 14.5731 57.0084 15.644V23.5737C57.0084 24.5649 57.0711 25.3853 57.1964 26.0347C57.3217 26.6841 57.504 27.2424 57.7433 27.7095V28H52.9239ZM48.3951 24.6675C48.8736 24.6675 49.318 24.6105 49.7281 24.4966C50.1383 24.3826 50.5086 24.2345 50.839 24.0522C51.1694 23.87 51.4542 23.6649 51.6935 23.437C51.9327 23.1978 52.1207 22.9585 52.2574 22.7192V19.5405H49.8307C49.0901 19.5405 48.4578 19.6146 47.9337 19.7627C47.4096 19.8994 46.9824 20.0931 46.652 20.3438C46.3216 20.6058 46.0766 20.9191 45.9171 21.2837C45.7576 21.6369 45.6778 22.0243 45.6778 22.4458C45.6778 22.7762 45.7348 23.0838 45.8487 23.3687C45.9741 23.6421 46.1507 23.8757 46.3785 24.0693C46.6064 24.2516 46.8855 24.3997 47.2159 24.5137C47.5577 24.6162 47.9508 24.6675 48.3951 24.6675ZM72.8069 7.03076H65.1336V28H60.3143V7.03076H52.7435V3.11719H72.8069V7.03076ZM80.8371 18.6177C80.8371 17.2163 80.9966 15.9346 81.3156 14.7725C81.646 13.6104 82.1245 12.6134 82.7512 11.7817C83.3778 10.95 84.1355 10.3063 85.0241 9.85059C85.9242 9.39486 86.9496 9.16699 88.1003 9.16699C89.0687 9.16699 89.9175 9.34359 90.6467 9.69678C91.3872 10.0386 92.0424 10.5285 92.612 11.1665V1.75H97.3801V28H93.0905L92.8513 26.0688C92.2702 26.7866 91.5866 27.3449 90.8005 27.7437C90.0144 28.1424 89.1029 28.3418 88.0661 28.3418C86.9382 28.3418 85.9242 28.1082 85.0241 27.6411C84.1355 27.1626 83.3835 26.5075 82.7683 25.6758C82.1416 24.8441 81.6631 23.8586 81.3327 22.7192C81.0023 21.5685 80.8371 20.321 80.8371 18.9766V18.6177ZM85.5881 18.9766C85.5881 19.7513 85.6508 20.4748 85.7761 21.147C85.9128 21.8078 86.1293 22.3831 86.4255 22.873C86.7217 23.3743 87.1034 23.7674 87.5705 24.0522C88.0376 24.3371 88.6073 24.4795 89.2795 24.4795C90.0998 24.4795 90.7777 24.3029 91.3132 23.9497C91.8601 23.5965 92.293 23.1123 92.612 22.4971V15.0117C92.293 14.3851 91.8658 13.9009 91.3303 13.5591C90.7948 13.2059 90.1226 13.0293 89.3137 13.0293C88.6415 13.0293 88.0661 13.1774 87.5876 13.4736C87.1205 13.7585 86.7388 14.1515 86.4426 14.6528C86.1464 15.1655 85.9299 15.7637 85.7932 16.4473C85.6564 17.1195 85.5881 17.8429 85.5881 18.6177V18.9766ZM106.206 28C106.092 27.7721 105.995 27.5101 105.915 27.2139C105.836 26.9176 105.767 26.6043 105.71 26.2739C105.448 26.5588 105.146 26.8265 104.805 27.0771C104.463 27.3278 104.087 27.5443 103.677 27.7266C103.255 27.9202 102.794 28.0684 102.292 28.1709C101.791 28.2848 101.25 28.3418 100.669 28.3418C99.7232 28.3418 98.8516 28.2051 98.0541 27.9316C97.268 27.6582 96.5901 27.2765 96.0204 26.7866C95.4507 26.2967 95.0064 25.7157 94.6874 25.0435C94.3684 24.3599 94.2089 23.6193 94.2089 22.8218C94.2089 21.7964 94.4083 20.8906 94.807 20.1045C95.2058 19.307 95.8039 18.6519 96.6015 18.1392C97.3192 17.672 98.2022 17.3188 99.2504 17.0796C100.31 16.8289 101.523 16.7036 102.891 16.7036H105.539V15.6099C105.539 15.1769 105.471 14.7896 105.334 14.4478C105.198 14.0946 104.993 13.7926 104.719 13.542C104.434 13.2799 104.075 13.0806 103.642 12.9438C103.221 12.7957 102.725 12.7217 102.156 12.7217C101.654 12.7217 101.221 12.7843 100.857 12.9097C100.492 13.0236 100.196 13.1888 99.9682 13.4053C99.7631 13.599 99.6093 13.8325 99.5067 14.106C99.4156 14.3794 99.37 14.6813 99.37 15.0117H94.619C94.619 14.2256 94.7899 13.4793 95.1317 12.7729C95.4849 12.0666 95.9976 11.4456 96.6698 10.9102C97.3306 10.3747 98.1395 9.95312 99.0966 9.64551C100.065 9.3265 101.17 9.16699 102.412 9.16699C103.529 9.16699 104.565 9.30371 105.522 9.57715C106.491 9.85059 107.328 10.255 108.035 10.7905C108.741 11.326 109.294 12.0039 109.692 12.8242C110.091 13.6331 110.29 14.5731 110.29 15.644V23.5737C110.29 24.5649 110.353 25.3853 110.478 26.0347C110.604 26.6841 110.786 27.2424 111.025 27.7095V28H106.206ZM101.677 24.6675C102.156 24.6675 102.6 24.6105 103.01 24.4966C103.42 24.3826 103.791 24.2345 104.121 24.0522C104.451 23.87 104.736 23.6649 104.975 23.437C105.215 23.1978 105.403 22.9585 105.539 22.7192V19.5405H103.113C102.372 19.5405 101.74 19.6146 101.216 19.7627C100.692 19.8994 100.264 20.0931 99.934 20.3438C99.6036 20.6058 99.3586 20.9191 99.1991 21.2837C99.0396 21.6369 98.9599 22.0243 98.9599 22.4458C98.9599 22.7762 99.0168 23.0838 99.1308 23.3687C99.2561 23.6421 99.4327 23.8757 99.6605 24.0693C99.8884 24.2516 100.168 24.3997 100.498 24.5137C100.84 24.6162 101.233 24.6675 101.677 24.6675Z"/>
<path d="M14.0808 18.5835C14.0808 17.2391 14.2744 15.9972 14.6618 14.8579C15.0492 13.7072 15.6188 12.7103 16.3708 11.8672C17.1114 11.0241 18.0171 10.3633 19.0881 9.88477C20.1704 9.40625 21.4066 9.16699 22.7966 9.16699C24.1866 9.16699 25.4227 9.40625 26.5051 9.88477C27.5874 10.3633 28.5046 11.0241 29.2565 11.8672C29.9971 12.7103 30.5611 13.7072 30.9484 14.8579C31.3358 15.9972 31.5295 17.2391 31.5295 18.5835V18.9424C31.5295 20.2982 31.3358 21.5514 30.9484 22.7021C30.5611 23.8415 29.9971 24.8327 29.2565 25.6758C28.516 26.5189 27.6045 27.1797 26.5222 27.6582C25.4398 28.1253 24.2093 28.3589 22.8308 28.3589C21.4408 28.3589 20.1989 28.1253 19.1052 27.6582C18.0228 27.1797 17.1114 26.5189 16.3708 25.6758C15.6188 24.8327 15.0492 23.8415 14.6618 22.7021C14.2744 21.5514 14.0808 20.2982 14.0808 18.9424V18.5835ZM18.8317 18.9424C18.8317 19.7171 18.9058 20.4463 19.0539 21.1299C19.202 21.8021 19.4356 22.3888 19.7546 22.8901C20.0736 23.4028 20.4838 23.8073 20.9851 24.1035C21.4978 24.3997 22.113 24.5479 22.8308 24.5479C23.5257 24.5479 24.1239 24.3997 24.6252 24.1035C25.1265 23.8073 25.5367 23.4028 25.8557 22.8901C26.1633 22.3888 26.3911 21.8021 26.5393 21.1299C26.6874 20.4463 26.7614 19.7171 26.7614 18.9424V18.5835C26.7614 17.8315 26.6874 17.1195 26.5393 16.4473C26.3911 15.7751 26.1633 15.1826 25.8557 14.6699C25.5367 14.1572 25.1265 13.7528 24.6252 13.4565C24.1239 13.1603 23.5144 13.0122 22.7966 13.0122C22.0902 13.0122 21.4864 13.1603 20.9851 13.4565C20.4838 13.7528 20.0736 14.1572 19.7546 14.6699C19.4356 15.1826 19.202 15.7751 19.0539 16.4473C18.9058 17.1195 18.8317 17.8315 18.8317 18.5835V18.9424ZM67.3628 18.5835C67.3628 17.2391 67.5565 15.9972 67.9438 14.8579C68.3312 13.7072 68.9009 12.7103 69.6528 11.8672C70.3934 11.0241 71.2992 10.3633 72.3701 9.88477C73.4525 9.40625 74.6886 9.16699 76.0786 9.16699C77.4686 9.16699 78.7048 9.40625 79.7871 9.88477C80.8695 10.3633 81.7866 11.0241 82.5386 11.8672C83.2791 12.7103 83.8431 13.7072 84.2305 14.8579C84.6178 15.9972 84.8115 17.2391 84.8115 18.5835V18.9424C84.8115 20.2982 84.6178 21.5514 84.2305 22.7021C83.8431 23.8415 83.2791 24.8327 82.5386 25.6758C81.798 26.5189 80.8866 27.1797 79.8042 27.6582C78.7218 28.1253 77.4914 28.3589 76.1128 28.3589C74.7228 28.3589 73.481 28.1253 72.3872 27.6582C71.3049 27.1797 70.3934 26.5189 69.6528 25.6758C68.9009 24.8327 68.3312 23.8415 67.9438 22.7021C67.5565 21.5514 67.3628 20.2982 67.3628 18.9424V18.5835ZM72.1138 18.9424C72.1138 19.7171 72.1878 20.4463 72.3359 21.1299C72.484 21.8021 72.7176 22.3888 73.0366 22.8901C73.3556 23.4028 73.7658 23.8073 74.2671 24.1035C74.7798 24.3997 75.395 24.5479 76.1128 24.5479C76.8078 24.5479 77.4059 24.3997 77.9072 24.1035C78.4085 23.8073 78.8187 23.4028 79.1377 22.8901C79.4453 22.3888 79.6732 21.8021 79.8213 21.1299C79.9694 20.4463 80.0435 19.7171 80.0435 18.9424V18.5835C80.0435 17.8315 79.9694 17.1195 79.8213 16.4473C79.6732 15.7751 79.4453 15.1826 79.1377 14.6699C78.8187 14.1572 78.4085 13.7528 77.9072 13.4565C77.4059 13.1603 76.7964 13.0122 76.0786 13.0122C75.3722 13.0122 74.7684 13.1603 74.2671 13.4565C73.7658 13.7528 73.3556 14.1572 73.0366 14.6699C72.7176 15.1826 72.484 15.7751 72.3359 16.4473C72.1878 17.1195 72.1138 17.8315 72.1138 18.5835V18.9424Z"/>
</mask>
<path d="M1.20459 28V3.11719H9.56152C10.9173 3.11719 12.1478 3.25391 13.2529 3.52734C14.3695 3.80078 15.3208 4.21663 16.1069 4.7749C16.8931 5.33317 17.4969 6.03955 17.9185 6.89404C18.3514 7.74854 18.5679 8.75684 18.5679 9.91895C18.5565 10.6709 18.4198 11.383 18.1577 12.0552C17.9071 12.716 17.5311 13.297 17.0298 13.7983C16.7563 14.0718 16.443 14.3224 16.0898 14.5503C15.748 14.7782 15.3664 14.9718 14.9448 15.1313V15.1484C15.7651 15.3763 16.4146 15.6668 16.8931 16.02C17.383 16.3732 17.7931 16.7834 18.1235 17.2505C18.4653 17.7518 18.716 18.2987 18.8755 18.8911C19.0464 19.4722 19.1318 20.076 19.1318 20.7026C19.1318 21.8989 18.9268 22.9528 18.5166 23.8643C18.1064 24.7757 17.5197 25.5391 16.7563 26.1543C15.993 26.7695 15.0645 27.231 13.9707 27.5386C12.877 27.8462 11.6465 28 10.2793 28H1.20459ZM6.02393 17.0283V24.1206H10.2964C10.923 24.1206 11.4813 24.0409 11.9712 23.8813C12.4725 23.7218 12.8883 23.5054 13.2188 23.2319C13.5833 22.9243 13.8568 22.554 14.0391 22.1211C14.2327 21.6882 14.3296 21.2039 14.3296 20.6685C14.3296 20.1102 14.2555 19.6089 14.1074 19.1646C13.9707 18.7202 13.7485 18.3442 13.4409 18.0366C13.1333 17.7176 12.7345 17.4727 12.2446 17.3018C11.7547 17.1309 11.1737 17.0397 10.5015 17.0283H6.02393ZM6.02393 13.5591H9.5957C10.3249 13.5477 10.9686 13.4622 11.5269 13.3027C12.0851 13.1318 12.5352 12.8812 12.877 12.5508C13.1618 12.2887 13.3783 11.9697 13.5264 11.5938C13.6859 11.2178 13.7656 10.7905 13.7656 10.312C13.7656 9.81071 13.6973 9.37207 13.5605 8.99609C13.4352 8.62012 13.2415 8.3068 12.9795 8.05615C12.6377 7.70296 12.1763 7.44661 11.5952 7.28711C11.0256 7.1276 10.3534 7.04215 9.57861 7.03076H6.02393V13.5591ZM29.0419 1.75H39.3813V24.1377H44.6791V28H29.0419V24.1377H34.579V5.62939H29.0419V1.75ZM52.9239 28C52.81 27.7721 52.7132 27.5101 52.6334 27.2139C52.5536 26.9176 52.4853 26.6043 52.4283 26.2739C52.1663 26.5588 51.8644 26.8265 51.5226 27.0771C51.1808 27.3278 50.8048 27.5443 50.3946 27.7266C49.9731 27.9202 49.5117 28.0684 49.0104 28.1709C48.5091 28.2848 47.9679 28.3418 47.3868 28.3418C46.4412 28.3418 45.5696 28.2051 44.7721 27.9316C43.9859 27.6582 43.308 27.2765 42.7384 26.7866C42.1687 26.2967 41.7244 25.7157 41.4054 25.0435C41.0864 24.3599 40.9269 23.6193 40.9269 22.8218C40.9269 21.7964 41.1262 20.8906 41.525 20.1045C41.9238 19.307 42.5219 18.6519 43.3194 18.1392C44.0372 17.672 44.9202 17.3188 45.9684 17.0796C47.0279 16.8289 48.2413 16.7036 49.6085 16.7036H52.2574V15.6099C52.2574 15.1769 52.1891 14.7896 52.0523 14.4478C51.9156 14.0946 51.7105 13.7926 51.4371 13.542C51.1523 13.2799 50.7934 13.0806 50.3605 12.9438C49.9389 12.7957 49.4433 12.7217 48.8736 12.7217C48.3723 12.7217 47.9394 12.7843 47.5748 12.9097C47.2102 13.0236 46.914 13.1888 46.6861 13.4053C46.4811 13.599 46.3272 13.8325 46.2247 14.106C46.1336 14.3794 46.088 14.6813 46.088 15.0117H41.337C41.337 14.2256 41.5079 13.4793 41.8497 12.7729C42.2029 12.0666 42.7156 11.4456 43.3878 10.9102C44.0486 10.3747 44.8575 9.95312 45.8146 9.64551C46.783 9.3265 47.8881 9.16699 49.13 9.16699C50.2465 9.16699 51.2833 9.30371 52.2403 9.57715C53.2088 9.85059 54.0462 10.255 54.7525 10.7905C55.4589 11.326 56.0115 12.0039 56.4103 12.8242C56.809 13.6331 57.0084 14.5731 57.0084 15.644V23.5737C57.0084 24.5649 57.0711 25.3853 57.1964 26.0347C57.3217 26.6841 57.504 27.2424 57.7433 27.7095V28H52.9239ZM48.3951 24.6675C48.8736 24.6675 49.318 24.6105 49.7281 24.4966C50.1383 24.3826 50.5086 24.2345 50.839 24.0522C51.1694 23.87 51.4542 23.6649 51.6935 23.437C51.9327 23.1978 52.1207 22.9585 52.2574 22.7192V19.5405H49.8307C49.0901 19.5405 48.4578 19.6146 47.9337 19.7627C47.4096 19.8994 46.9824 20.0931 46.652 20.3438C46.3216 20.6058 46.0766 20.9191 45.9171 21.2837C45.7576 21.6369 45.6778 22.0243 45.6778 22.4458C45.6778 22.7762 45.7348 23.0838 45.8487 23.3687C45.9741 23.6421 46.1507 23.8757 46.3785 24.0693C46.6064 24.2516 46.8855 24.3997 47.2159 24.5137C47.5577 24.6162 47.9508 24.6675 48.3951 24.6675ZM72.8069 7.03076H65.1336V28H60.3143V7.03076H52.7435V3.11719H72.8069V7.03076ZM80.8371 18.6177C80.8371 17.2163 80.9966 15.9346 81.3156 14.7725C81.646 13.6104 82.1245 12.6134 82.7512 11.7817C83.3778 10.95 84.1355 10.3063 85.0241 9.85059C85.9242 9.39486 86.9496 9.16699 88.1003 9.16699C89.0687 9.16699 89.9175 9.34359 90.6467 9.69678C91.3872 10.0386 92.0424 10.5285 92.612 11.1665V1.75H97.3801V28H93.0905L92.8513 26.0688C92.2702 26.7866 91.5866 27.3449 90.8005 27.7437C90.0144 28.1424 89.1029 28.3418 88.0661 28.3418C86.9382 28.3418 85.9242 28.1082 85.0241 27.6411C84.1355 27.1626 83.3835 26.5075 82.7683 25.6758C82.1416 24.8441 81.6631 23.8586 81.3327 22.7192C81.0023 21.5685 80.8371 20.321 80.8371 18.9766V18.6177ZM85.5881 18.9766C85.5881 19.7513 85.6508 20.4748 85.7761 21.147C85.9128 21.8078 86.1293 22.3831 86.4255 22.873C86.7217 23.3743 87.1034 23.7674 87.5705 24.0522C88.0376 24.3371 88.6073 24.4795 89.2795 24.4795C90.0998 24.4795 90.7777 24.3029 91.3132 23.9497C91.8601 23.5965 92.293 23.1123 92.612 22.4971V15.0117C92.293 14.3851 91.8658 13.9009 91.3303 13.5591C90.7948 13.2059 90.1226 13.0293 89.3137 13.0293C88.6415 13.0293 88.0661 13.1774 87.5876 13.4736C87.1205 13.7585 86.7388 14.1515 86.4426 14.6528C86.1464 15.1655 85.9299 15.7637 85.7932 16.4473C85.6564 17.1195 85.5881 17.8429 85.5881 18.6177V18.9766ZM106.206 28C106.092 27.7721 105.995 27.5101 105.915 27.2139C105.836 26.9176 105.767 26.6043 105.71 26.2739C105.448 26.5588 105.146 26.8265 104.805 27.0771C104.463 27.3278 104.087 27.5443 103.677 27.7266C103.255 27.9202 102.794 28.0684 102.292 28.1709C101.791 28.2848 101.25 28.3418 100.669 28.3418C99.7232 28.3418 98.8516 28.2051 98.0541 27.9316C97.268 27.6582 96.5901 27.2765 96.0204 26.7866C95.4507 26.2967 95.0064 25.7157 94.6874 25.0435C94.3684 24.3599 94.2089 23.6193 94.2089 22.8218C94.2089 21.7964 94.4083 20.8906 94.807 20.1045C95.2058 19.307 95.8039 18.6519 96.6015 18.1392C97.3192 17.672 98.2022 17.3188 99.2504 17.0796C100.31 16.8289 101.523 16.7036 102.891 16.7036H105.539V15.6099C105.539 15.1769 105.471 14.7896 105.334 14.4478C105.198 14.0946 104.993 13.7926 104.719 13.542C104.434 13.2799 104.075 13.0806 103.642 12.9438C103.221 12.7957 102.725 12.7217 102.156 12.7217C101.654 12.7217 101.221 12.7843 100.857 12.9097C100.492 13.0236 100.196 13.1888 99.9682 13.4053C99.7631 13.599 99.6093 13.8325 99.5067 14.106C99.4156 14.3794 99.37 14.6813 99.37 15.0117H94.619C94.619 14.2256 94.7899 13.4793 95.1317 12.7729C95.4849 12.0666 95.9976 11.4456 96.6698 10.9102C97.3306 10.3747 98.1395 9.95312 99.0966 9.64551C100.065 9.3265 101.17 9.16699 102.412 9.16699C103.529 9.16699 104.565 9.30371 105.522 9.57715C106.491 9.85059 107.328 10.255 108.035 10.7905C108.741 11.326 109.294 12.0039 109.692 12.8242C110.091 13.6331 110.29 14.5731 110.29 15.644V23.5737C110.29 24.5649 110.353 25.3853 110.478 26.0347C110.604 26.6841 110.786 27.2424 111.025 27.7095V28H106.206ZM101.677 24.6675C102.156 24.6675 102.6 24.6105 103.01 24.4966C103.42 24.3826 103.791 24.2345 104.121 24.0522C104.451 23.87 104.736 23.6649 104.975 23.437C105.215 23.1978 105.403 22.9585 105.539 22.7192V19.5405H103.113C102.372 19.5405 101.74 19.6146 101.216 19.7627C100.692 19.8994 100.264 20.0931 99.934 20.3438C99.6036 20.6058 99.3586 20.9191 99.1991 21.2837C99.0396 21.6369 98.9599 22.0243 98.9599 22.4458C98.9599 22.7762 99.0168 23.0838 99.1308 23.3687C99.2561 23.6421 99.4327 23.8757 99.6605 24.0693C99.8884 24.2516 100.168 24.3997 100.498 24.5137C100.84 24.6162 101.233 24.6675 101.677 24.6675Z" fill="#229E0A"/>
<path d="M14.0808 18.5835C14.0808 17.2391 14.2744 15.9972 14.6618 14.8579C15.0492 13.7072 15.6188 12.7103 16.3708 11.8672C17.1114 11.0241 18.0171 10.3633 19.0881 9.88477C20.1704 9.40625 21.4066 9.16699 22.7966 9.16699C24.1866 9.16699 25.4227 9.40625 26.5051 9.88477C27.5874 10.3633 28.5046 11.0241 29.2565 11.8672C29.9971 12.7103 30.5611 13.7072 30.9484 14.8579C31.3358 15.9972 31.5295 17.2391 31.5295 18.5835V18.9424C31.5295 20.2982 31.3358 21.5514 30.9484 22.7021C30.5611 23.8415 29.9971 24.8327 29.2565 25.6758C28.516 26.5189 27.6045 27.1797 26.5222 27.6582C25.4398 28.1253 24.2093 28.3589 22.8308 28.3589C21.4408 28.3589 20.1989 28.1253 19.1052 27.6582C18.0228 27.1797 17.1114 26.5189 16.3708 25.6758C15.6188 24.8327 15.0492 23.8415 14.6618 22.7021C14.2744 21.5514 14.0808 20.2982 14.0808 18.9424V18.5835ZM18.8317 18.9424C18.8317 19.7171 18.9058 20.4463 19.0539 21.1299C19.202 21.8021 19.4356 22.3888 19.7546 22.8901C20.0736 23.4028 20.4838 23.8073 20.9851 24.1035C21.4978 24.3997 22.113 24.5479 22.8308 24.5479C23.5257 24.5479 24.1239 24.3997 24.6252 24.1035C25.1265 23.8073 25.5367 23.4028 25.8557 22.8901C26.1633 22.3888 26.3911 21.8021 26.5393 21.1299C26.6874 20.4463 26.7614 19.7171 26.7614 18.9424V18.5835C26.7614 17.8315 26.6874 17.1195 26.5393 16.4473C26.3911 15.7751 26.1633 15.1826 25.8557 14.6699C25.5367 14.1572 25.1265 13.7528 24.6252 13.4565C24.1239 13.1603 23.5144 13.0122 22.7966 13.0122C22.0902 13.0122 21.4864 13.1603 20.9851 13.4565C20.4838 13.7528 20.0736 14.1572 19.7546 14.6699C19.4356 15.1826 19.202 15.7751 19.0539 16.4473C18.9058 17.1195 18.8317 17.8315 18.8317 18.5835V18.9424ZM67.3628 18.5835C67.3628 17.2391 67.5565 15.9972 67.9438 14.8579C68.3312 13.7072 68.9009 12.7103 69.6528 11.8672C70.3934 11.0241 71.2992 10.3633 72.3701 9.88477C73.4525 9.40625 74.6886 9.16699 76.0786 9.16699C77.4686 9.16699 78.7048 9.40625 79.7871 9.88477C80.8695 10.3633 81.7866 11.0241 82.5386 11.8672C83.2791 12.7103 83.8431 13.7072 84.2305 14.8579C84.6178 15.9972 84.8115 17.2391 84.8115 18.5835V18.9424C84.8115 20.2982 84.6178 21.5514 84.2305 22.7021C83.8431 23.8415 83.2791 24.8327 82.5386 25.6758C81.798 26.5189 80.8866 27.1797 79.8042 27.6582C78.7218 28.1253 77.4914 28.3589 76.1128 28.3589C74.7228 28.3589 73.481 28.1253 72.3872 27.6582C71.3049 27.1797 70.3934 26.5189 69.6528 25.6758C68.9009 24.8327 68.3312 23.8415 67.9438 22.7021C67.5565 21.5514 67.3628 20.2982 67.3628 18.9424V18.5835ZM72.1138 18.9424C72.1138 19.7171 72.1878 20.4463 72.3359 21.1299C72.484 21.8021 72.7176 22.3888 73.0366 22.8901C73.3556 23.4028 73.7658 23.8073 74.2671 24.1035C74.7798 24.3997 75.395 24.5479 76.1128 24.5479C76.8078 24.5479 77.4059 24.3997 77.9072 24.1035C78.4085 23.8073 78.8187 23.4028 79.1377 22.8901C79.4453 22.3888 79.6732 21.8021 79.8213 21.1299C79.9694 20.4463 80.0435 19.7171 80.0435 18.9424V18.5835C80.0435 17.8315 79.9694 17.1195 79.8213 16.4473C79.6732 15.7751 79.4453 15.1826 79.1377 14.6699C78.8187 14.1572 78.4085 13.7528 77.9072 13.4565C77.4059 13.1603 76.7964 13.0122 76.0786 13.0122C75.3722 13.0122 74.7684 13.1603 74.2671 13.4565C73.7658 13.7528 73.3556 14.1572 73.0366 14.6699C72.7176 15.1826 72.484 15.7751 72.3359 16.4473C72.1878 17.1195 72.1138 17.8315 72.1138 18.5835V18.9424Z" fill="#C9CD45"/>
<path d="M1.20459 28H0.20459V29H1.20459V28ZM1.20459 3.11719V2.11719H0.20459V3.11719H1.20459ZM13.2529 3.52734L13.0127 4.49807L13.0151 4.49864L13.2529 3.52734ZM17.9185 6.89404L17.0216 7.33649L17.0264 7.34601L17.9185 6.89404ZM18.5679 9.91895L19.5678 9.9341L19.5679 9.92652V9.91895H18.5679ZM18.1577 12.0552L17.226 11.692L17.2227 11.7005L18.1577 12.0552ZM17.0298 13.7983L17.7369 14.5054L17.0298 13.7983ZM16.0898 14.5503L15.5477 13.71L15.5414 13.7141L15.5351 13.7182L16.0898 14.5503ZM14.9448 15.1313L14.5909 14.1961L13.9448 14.4405V15.1313H14.9448ZM14.9448 15.1484H13.9448V15.9085L14.6772 16.112L14.9448 15.1484ZM16.8931 16.02L16.2992 16.8246L16.3083 16.8312L16.8931 16.02ZM18.1235 17.2505L18.9498 16.6872L18.9449 16.68L18.94 16.673L18.1235 17.2505ZM18.8755 18.8911L17.9099 19.1511L17.9129 19.1622L17.9161 19.1733L18.8755 18.8911ZM18.5166 23.8643L17.6047 23.4539L18.5166 23.8643ZM16.7563 26.1543L16.1288 25.3757L16.7563 26.1543ZM6.02393 17.0283V16.0283H5.02393V17.0283H6.02393ZM6.02393 24.1206H5.02393V25.1206H6.02393V24.1206ZM11.9712 23.8813L11.668 22.9284L11.6616 22.9305L11.9712 23.8813ZM13.2188 23.2319L13.8563 24.0024L13.8636 23.9962L13.2188 23.2319ZM14.0391 22.1211L13.1262 21.7127L13.1217 21.7228L13.1174 21.733L14.0391 22.1211ZM14.1074 19.1646L13.1516 19.4586L13.1551 19.4697L13.1587 19.4808L14.1074 19.1646ZM13.4409 18.0366L12.7211 18.7308L12.7274 18.7373L12.7338 18.7437L13.4409 18.0366ZM10.5015 17.0283L10.5184 16.0285L10.5099 16.0283H10.5015V17.0283ZM6.02393 13.5591H5.02393V14.5591H6.02393V13.5591ZM9.5957 13.5591V14.5591H9.60352L9.61133 14.559L9.5957 13.5591ZM11.5269 13.3027L11.8016 14.2643L11.8106 14.2617L11.8196 14.2589L11.5269 13.3027ZM12.877 12.5508L12.1999 11.8149L12.1908 11.8232L12.1819 11.8318L12.877 12.5508ZM13.5264 11.5938L12.6058 11.2032L12.6007 11.2151L12.596 11.2272L13.5264 11.5938ZM13.5605 8.99609L12.6119 9.31232L12.6161 9.32514L12.6208 9.33784L13.5605 8.99609ZM12.9795 8.05615L12.2609 8.75157L12.2743 8.76545L12.2883 8.77879L12.9795 8.05615ZM11.5952 7.28711L11.3256 8.25009L11.3305 8.25144L11.5952 7.28711ZM9.57861 7.03076L9.59332 6.03087L9.58597 6.03076H9.57861V7.03076ZM6.02393 7.03076V6.03076H5.02393V7.03076H6.02393ZM2.20459 28V3.11719H0.20459V28H2.20459ZM1.20459 4.11719H9.56152V2.11719H1.20459V4.11719ZM9.56152 4.11719C10.8513 4.11719 11.9994 4.24735 13.0127 4.49807L13.4931 2.55662C12.2961 2.26046 10.9834 2.11719 9.56152 2.11719V4.11719ZM13.0151 4.49864C14.0321 4.74771 14.8624 5.11758 15.5279 5.59023L16.6859 3.95958C15.7792 3.31569 14.7068 2.85385 13.4908 2.55605L13.0151 4.49864ZM15.5279 5.59023C16.1805 6.05367 16.6744 6.63255 17.0217 7.33647L18.8153 6.45162C18.3194 5.44655 17.6056 4.61267 16.6859 3.95958L15.5279 5.59023ZM17.0264 7.34601C17.3748 8.03364 17.5679 8.88083 17.5679 9.91895H19.5679C19.5679 8.63284 19.328 7.46343 18.8105 6.44208L17.0264 7.34601ZM17.568 9.9038C17.5583 10.5417 17.4429 11.1355 17.226 11.692L19.0894 12.4184C19.3966 11.6305 19.5546 10.8001 19.5678 9.9341L17.568 9.9038ZM17.2227 11.7005C17.0224 12.2286 16.7243 12.6896 16.3227 13.0912L17.7369 14.5054C18.3379 13.9044 18.7917 13.2033 19.0927 12.4098L17.2227 11.7005ZM16.3227 13.0912C16.1035 13.3104 15.8465 13.5173 15.5477 13.71L16.632 15.3906C17.0396 15.1276 17.4092 14.8331 17.7369 14.5054L16.3227 13.0912ZM15.5351 13.7182C15.2619 13.9004 14.9486 14.0607 14.5909 14.1961L15.2987 16.0666C15.7841 15.883 16.2342 15.6559 16.6445 15.3823L15.5351 13.7182ZM13.9448 15.1313V15.1484H15.9448V15.1313H13.9448ZM14.6772 16.112C15.4265 16.3201 15.9514 16.5678 16.2992 16.8246L17.4869 15.2154C16.8777 14.7658 16.1038 14.4325 15.2125 14.1849L14.6772 16.112ZM16.3083 16.8312C16.7136 17.1234 17.044 17.4559 17.3071 17.828L18.94 16.673C18.5423 16.1108 18.0523 15.623 17.4779 15.2088L16.3083 16.8312ZM17.2973 17.8138C17.5753 18.2215 17.7792 18.6656 17.9099 19.1511L19.8411 18.6311C19.6528 17.9317 19.3554 17.2821 18.9498 16.6872L17.2973 17.8138ZM17.9161 19.1733C18.0591 19.6596 18.1318 20.1682 18.1318 20.7026H20.1318C20.1318 19.9838 20.0336 19.2848 19.8349 18.6089L17.9161 19.1733ZM18.1318 20.7026C18.1318 21.7849 17.9465 22.6943 17.6047 23.4539L19.4285 24.2746C19.907 23.2113 20.1318 22.013 20.1318 20.7026H18.1318ZM17.6047 23.4539C17.2577 24.2249 16.7673 24.8611 16.1288 25.3757L17.3839 26.9329C18.2721 26.217 18.9551 25.3266 19.4285 24.2746L17.6047 23.4539ZM16.1288 25.3757C15.4861 25.8937 14.684 26.2991 13.7 26.5759L14.2414 28.5012C15.4449 28.1628 16.4999 27.6454 17.3839 26.9329L16.1288 25.3757ZM13.7 26.5759C12.7101 26.8543 11.5729 27 10.2793 27V29C11.7201 29 13.0439 28.838 14.2414 28.5012L13.7 26.5759ZM10.2793 27H1.20459V29H10.2793V27ZM5.02393 17.0283V24.1206H7.02393V17.0283H5.02393ZM6.02393 25.1206H10.2964V23.1206H6.02393V25.1206ZM10.2964 25.1206C11.0062 25.1206 11.672 25.0304 12.2808 24.8322L11.6616 22.9305C11.2906 23.0513 10.8398 23.1206 10.2964 23.1206V25.1206ZM12.2744 24.8343C12.871 24.6445 13.4076 24.3737 13.8563 24.0023L12.5812 22.4615C12.3691 22.637 12.074 22.7992 11.668 22.9284L12.2744 24.8343ZM13.8636 23.9962C14.3469 23.5884 14.7162 23.0899 14.9607 22.5092L13.1174 21.733C12.9974 22.0182 12.8197 22.2602 12.5739 22.4676L13.8636 23.9962ZM14.9519 22.5295C15.21 21.9524 15.3296 21.3265 15.3296 20.6685H13.3296C13.3296 21.0814 13.2555 21.4239 13.1262 21.7127L14.9519 22.5295ZM15.3296 20.6685C15.3296 20.0227 15.244 19.412 15.0561 18.8483L13.1587 19.4808C13.2671 19.8057 13.3296 20.1976 13.3296 20.6685H15.3296ZM15.0632 18.8705C14.8819 18.2812 14.5788 17.7603 14.148 17.3295L12.7338 18.7437C12.9182 18.9281 13.0595 19.1592 13.1516 19.4586L15.0632 18.8705ZM14.1608 17.3425C13.7272 16.8929 13.1866 16.5713 12.574 16.3576L11.9153 18.246C12.2824 18.374 12.5394 18.5423 12.7211 18.7308L14.1608 17.3425ZM12.574 16.3576C11.9589 16.143 11.2673 16.0412 10.5184 16.0285L10.4845 18.0282C11.08 18.0383 11.5506 18.1187 11.9153 18.246L12.574 16.3576ZM10.5015 16.0283H6.02393V18.0283H10.5015V16.0283ZM6.02393 14.5591H9.5957V12.5591H6.02393V14.5591ZM9.61133 14.559C10.4069 14.5465 11.1407 14.4531 11.8016 14.2643L11.2521 12.3412C10.7965 12.4714 10.2429 12.5488 9.58008 12.5592L9.61133 14.559ZM11.8196 14.2589C12.4949 14.0522 13.0937 13.7321 13.572 13.2698L12.1819 11.8318C11.9766 12.0303 11.6753 12.2115 11.2341 12.3465L11.8196 14.2589ZM13.554 13.2867C13.9551 12.9177 14.2557 12.4706 14.4568 11.9603L12.596 11.2272C12.5008 11.4689 12.3685 11.6597 12.1999 11.8149L13.554 13.2867ZM14.4469 11.9843C14.6671 11.4655 14.7656 10.902 14.7656 10.312H12.7656C12.7656 10.6791 12.7047 10.9701 12.6058 11.2032L14.4469 11.9843ZM14.7656 10.312C14.7656 9.72245 14.6855 9.16362 14.5003 8.65435L12.6208 9.33784C12.709 9.58052 12.7656 9.89897 12.7656 10.312H14.7656ZM14.5092 8.67987C14.3373 8.16414 14.0611 7.70688 13.6707 7.33351L12.2883 8.77879C12.422 8.90673 12.5331 9.07609 12.6119 9.31232L14.5092 8.67987ZM13.6981 7.36073C13.2065 6.85273 12.5748 6.51901 11.8599 6.32278L11.3305 8.25144C11.7778 8.37422 12.0689 8.55319 12.2609 8.75157L13.6981 7.36073ZM11.8648 6.32415C11.1911 6.1355 10.4293 6.04316 9.59332 6.03087L9.56391 8.03065C10.2774 8.04115 10.86 8.11971 11.3256 8.25007L11.8648 6.32415ZM9.57861 6.03076H6.02393V8.03076H9.57861V6.03076ZM5.02393 7.03076V13.5591H7.02393V7.03076H5.02393ZM14.6618 14.8579L15.6086 15.1798L15.6096 15.177L14.6618 14.8579ZM16.3708 11.8672L17.1171 12.5328L17.1221 12.5271L16.3708 11.8672ZM19.0881 9.88477L18.6837 8.97015L18.6801 8.97176L19.0881 9.88477ZM29.2565 11.8672L30.0079 11.2072L30.0028 11.2016L29.2565 11.8672ZM30.9484 14.8579L30.0007 15.177L30.0017 15.1798L30.9484 14.8579ZM30.9484 22.7021L31.8952 23.0241L31.8962 23.0212L30.9484 22.7021ZM29.2565 25.6758L30.0079 26.3357L29.2565 25.6758ZM26.5222 27.6582L26.9184 28.5764L26.9265 28.5728L26.5222 27.6582ZM19.1052 27.6582L18.7008 28.5729L18.7124 28.5778L19.1052 27.6582ZM16.3708 25.6758L17.1221 25.0158L17.1171 25.0102L16.3708 25.6758ZM14.6618 22.7021L13.7141 23.0212L13.715 23.0241L14.6618 22.7021ZM19.0539 21.1299L18.0766 21.3416L18.0773 21.3451L19.0539 21.1299ZM19.7546 22.8901L20.6037 22.3618L20.5983 22.3533L19.7546 22.8901ZM20.9851 24.1035L20.4763 24.9645L20.4848 24.9694L20.9851 24.1035ZM25.8557 22.8901L26.7047 23.4184L26.708 23.4132L25.8557 22.8901ZM26.5393 21.1299L27.5158 21.3451L27.5166 21.3416L26.5393 21.1299ZM25.8557 14.6699L26.7132 14.1554L26.709 14.1485L26.7047 14.1416L25.8557 14.6699ZM20.9851 13.4565L20.4763 12.5956L20.9851 13.4565ZM15.0808 18.5835C15.0808 17.3359 15.2603 16.2041 15.6086 15.1798L13.715 14.536C13.2886 15.7904 13.0808 17.1423 13.0808 18.5835H15.0808ZM15.6096 15.177C15.9571 14.1445 16.4616 13.2678 17.1171 12.5328L15.6245 11.2016C14.7761 12.1528 14.1413 13.2699 13.7141 14.5389L15.6096 15.177ZM17.1221 12.5271C17.7634 11.797 18.5503 11.2203 19.496 10.7978L18.6801 8.97176C17.4839 9.50623 16.4593 10.2512 15.6195 11.2072L17.1221 12.5271ZM19.4924 10.7994C20.4271 10.3861 21.5218 10.167 22.7966 10.167V8.16699C21.2914 8.16699 19.9137 8.42637 18.6837 8.97016L19.4924 10.7994ZM22.7966 10.167C24.0713 10.167 25.166 10.3861 26.1007 10.7994L26.9094 8.97016C25.6794 8.42637 24.3018 8.16699 22.7966 8.16699V10.167ZM26.1007 10.7994C27.059 11.223 27.8577 11.8012 28.5102 12.5328L30.0028 11.2016C29.1515 10.247 28.1159 9.50354 26.9094 8.97016L26.1007 10.7994ZM28.5052 12.5271C29.1514 13.2628 29.6521 14.1414 30.0007 15.177L31.8962 14.5389C31.4701 13.273 30.8428 12.1578 30.0079 11.2072L28.5052 12.5271ZM30.0017 15.1798C30.3499 16.2041 30.5295 17.3359 30.5295 18.5835H32.5295C32.5295 17.1423 32.3217 15.7904 31.8952 14.536L30.0017 15.1798ZM30.5295 18.5835V18.9424H32.5295V18.5835H30.5295ZM30.5295 18.9424C30.5295 20.2022 30.3497 21.3464 30.0007 22.3831L31.8962 23.0212C32.3219 21.7564 32.5295 20.3941 32.5295 18.9424H30.5295ZM30.0017 22.3802C29.6535 23.4042 29.1529 24.2785 28.5052 25.0158L30.0079 26.3357C30.8413 25.3869 31.4686 24.2787 31.8952 23.0241L30.0017 22.3802ZM28.5052 25.0158C27.8657 25.7439 27.0748 26.3205 26.1178 26.7436L26.9265 28.5728C28.1342 28.0389 29.1663 27.2938 30.0079 26.3357L28.5052 25.0158ZM26.1259 26.7401C25.1881 27.1448 24.0959 27.3589 22.8308 27.3589V29.3589C24.3228 29.3589 25.6916 29.1058 26.9184 28.5763L26.1259 26.7401ZM22.8308 27.3589C21.5533 27.3589 20.4484 27.1445 19.4979 26.7386L18.7124 28.5778C19.9495 29.1062 21.3283 29.3589 22.8308 29.3589V27.3589ZM19.5095 26.7436C18.5525 26.3205 17.7617 25.7439 17.1221 25.0158L15.6195 26.3357C16.461 27.2938 17.4931 28.0389 18.7008 28.5728L19.5095 26.7436ZM17.1171 25.0102C16.46 24.2735 15.9557 23.4011 15.6086 22.3802L13.715 23.0241C14.1427 24.2818 14.7777 25.3919 15.6245 26.3414L17.1171 25.0102ZM15.6096 22.3831C15.2606 21.3464 15.0808 20.2022 15.0808 18.9424H13.0808C13.0808 20.3941 13.2883 21.7564 13.7141 23.0212L15.6096 22.3831ZM15.0808 18.9424V18.5835H13.0808V18.9424H15.0808ZM17.8317 18.9424C17.8317 19.7808 17.9119 20.5815 18.0766 21.3416L20.0312 20.9181C19.8997 20.3111 19.8317 19.6535 19.8317 18.9424H17.8317ZM18.0773 21.3451C18.2467 22.1137 18.5201 22.8128 18.9109 23.427L20.5983 22.3533C20.3511 21.9649 20.1574 21.4905 20.0305 20.9147L18.0773 21.3451ZM18.9055 23.4184C19.3063 24.0625 19.8313 24.5833 20.4763 24.9644L21.4938 23.2426C21.1363 23.0313 20.8409 22.7431 20.6036 22.3618L18.9055 23.4184ZM20.4848 24.9694C21.1788 25.3704 21.9745 25.5479 22.8308 25.5479V23.5479C22.2514 23.5479 21.8167 23.4291 21.4853 23.2377L20.4848 24.9694ZM22.8308 25.5479C23.6699 25.5479 24.4511 25.3679 25.1339 24.9644L24.1165 23.2426C23.7967 23.4316 23.3816 23.5479 22.8308 23.5479V25.5479ZM25.1339 24.9644C25.779 24.5833 26.3039 24.0625 26.7047 23.4184L25.0066 22.3618C24.7694 22.7431 24.474 23.0313 24.1165 23.2426L25.1339 24.9644ZM26.708 23.4132C27.0829 22.8023 27.3477 22.108 27.5158 21.3451L25.5627 20.9147C25.4346 21.4962 25.2437 21.9754 25.0033 22.3671L26.708 23.4132ZM27.5166 21.3416C27.6813 20.5815 27.7614 19.7808 27.7614 18.9424H25.7614C25.7614 19.6535 25.6935 20.3111 25.5619 20.9181L27.5166 21.3416ZM27.7614 18.9424V18.5835H25.7614V18.9424H27.7614ZM27.7614 18.5835C27.7614 17.7658 27.6809 16.9811 27.5158 16.2321L25.5627 16.6624C25.6939 17.2578 25.7614 17.8973 25.7614 18.5835H27.7614ZM27.5158 16.2321C27.3479 15.47 27.0841 14.7736 26.7132 14.1554L24.9982 15.1844C25.2425 15.5916 25.4344 16.0801 25.5627 16.6624L27.5158 16.2321ZM26.7047 14.1416C26.3039 13.4975 25.779 12.9768 25.1339 12.5956L24.1165 14.3175C24.474 14.5287 24.7694 14.8169 25.0066 15.1982L26.7047 14.1416ZM25.1339 12.5956C24.4464 12.1894 23.6519 12.0122 22.7966 12.0122V14.0122C23.3768 14.0122 23.8014 14.1313 24.1165 14.3175L25.1339 12.5956ZM22.7966 12.0122C21.9494 12.0122 21.1615 12.1907 20.4763 12.5956L21.4938 14.3175C21.8112 14.1299 22.231 14.0122 22.7966 14.0122V12.0122ZM20.4763 12.5956C19.8313 12.9768 19.3063 13.4975 18.9055 14.1416L20.6036 15.1982C20.8409 14.8169 21.1363 14.5287 21.4938 14.3175L20.4763 12.5956ZM18.9055 14.1416C18.5188 14.7632 18.2465 15.4643 18.0773 16.2321L20.0305 16.6624C20.1575 16.0858 20.3524 15.6021 20.6036 15.1982L18.9055 14.1416ZM18.0773 16.2321C17.9123 16.9811 17.8317 17.7658 17.8317 18.5835H19.8317C19.8317 17.8973 19.8993 17.2578 20.0305 16.6624L18.0773 16.2321ZM17.8317 18.5835V18.9424H19.8317V18.5835H17.8317ZM29.0419 1.75V0.75H28.0419V1.75H29.0419ZM39.3813 1.75H40.3813V0.75H39.3813V1.75ZM39.3813 24.1377H38.3813V25.1377H39.3813V24.1377ZM44.6791 24.1377H45.6791V23.1377H44.6791V24.1377ZM44.6791 28V29H45.6791V28H44.6791ZM29.0419 28H28.0419V29H29.0419V28ZM29.0419 24.1377V23.1377H28.0419V24.1377H29.0419ZM34.579 24.1377V25.1377H35.579V24.1377H34.579ZM34.579 5.62939H35.579V4.62939H34.579V5.62939ZM29.0419 5.62939H28.0419V6.62939H29.0419V5.62939ZM29.0419 2.75H39.3813V0.75H29.0419V2.75ZM38.3813 1.75V24.1377H40.3813V1.75H38.3813ZM39.3813 25.1377H44.6791V23.1377H39.3813V25.1377ZM43.6791 24.1377V28H45.6791V24.1377H43.6791ZM44.6791 27H29.0419V29H44.6791V27ZM30.0419 28V24.1377H28.0419V28H30.0419ZM29.0419 25.1377H34.579V23.1377H29.0419V25.1377ZM35.579 24.1377V5.62939H33.579V24.1377H35.579ZM34.579 4.62939H29.0419V6.62939H34.579V4.62939ZM30.0419 5.62939V1.75H28.0419V5.62939H30.0419ZM52.9239 28L52.0295 28.4472L52.3059 29H52.9239V28ZM52.4283 26.2739L53.4138 26.104L53.0685 24.1011L51.6924 25.5969L52.4283 26.2739ZM50.3946 27.7266L49.9885 26.8127L49.9771 26.8179L50.3946 27.7266ZM49.0104 28.1709L48.81 27.1912L48.7993 27.1934L48.7887 27.1958L49.0104 28.1709ZM44.7721 27.9316L44.4435 28.8761L44.4477 28.8776L44.7721 27.9316ZM42.7384 26.7866L42.0863 27.5448L42.7384 26.7866ZM41.4054 25.0435L40.4992 25.4664L40.5019 25.4722L41.4054 25.0435ZM41.525 20.1045L42.4168 20.5569L42.4194 20.5517L41.525 20.1045ZM43.3194 18.1392L43.8602 18.9804L43.8649 18.9773L43.3194 18.1392ZM45.9684 17.0796L46.1909 18.0545L46.1986 18.0527L45.9684 17.0796ZM52.2574 16.7036V17.7036H53.2574V16.7036H52.2574ZM52.0523 14.4478L51.1197 14.8088L51.1239 14.8191L52.0523 14.4478ZM51.4371 13.542L50.7601 14.2779L50.7614 14.2791L51.4371 13.542ZM50.3605 12.9438L50.029 13.8873L50.0441 13.8926L50.0593 13.8974L50.3605 12.9438ZM47.5748 12.9097L47.8731 13.8641L47.8865 13.8599L47.8999 13.8554L47.5748 12.9097ZM46.6861 13.4053L47.3728 14.1323L47.3749 14.1303L46.6861 13.4053ZM46.2247 14.106L45.2884 13.7548L45.2819 13.7722L45.276 13.7897L46.2247 14.106ZM46.088 15.0117V16.0117H47.088V15.0117H46.088ZM41.337 15.0117H40.337V16.0117H41.337V15.0117ZM41.8497 12.7729L40.9552 12.3257L40.9495 12.3374L41.8497 12.7729ZM43.3878 10.9102L44.0109 11.6923L44.0174 11.6871L43.3878 10.9102ZM45.8146 9.64551L46.1206 10.5976L46.1274 10.5953L45.8146 9.64551ZM52.2403 9.57715L51.9656 10.5387L51.9686 10.5395L52.2403 9.57715ZM54.7525 10.7905L55.3566 9.99362L54.7525 10.7905ZM56.4103 12.8242L55.5109 13.2614L55.5133 13.2664L56.4103 12.8242ZM57.7433 27.7095H58.7433V27.4683L58.6333 27.2536L57.7433 27.7095ZM57.7433 28V29H58.7433V28H57.7433ZM50.839 24.0522L50.3559 23.1767L50.839 24.0522ZM51.6935 23.437L52.3831 24.1611L52.3919 24.1527L52.4006 24.1441L51.6935 23.437ZM52.2574 22.7192L53.1257 23.2154L53.2574 22.9848V22.7192H52.2574ZM52.2574 19.5405H53.2574V18.5405H52.2574V19.5405ZM47.9337 19.7627L48.1861 20.7303L48.1959 20.7278L48.2056 20.725L47.9337 19.7627ZM46.652 20.3438L46.0476 19.5471L46.039 19.5536L46.0306 19.5603L46.652 20.3438ZM45.9171 21.2837L46.8285 21.6953L46.8332 21.6845L45.9171 21.2837ZM45.8487 23.3687L44.9203 23.74L44.9294 23.7629L44.9397 23.7853L45.8487 23.3687ZM46.3785 24.0693L45.7309 24.8313L45.7422 24.8409L45.7538 24.8502L46.3785 24.0693ZM47.2159 24.5137L46.8899 25.459L46.9091 25.4657L46.9286 25.4715L47.2159 24.5137ZM53.8184 27.5528C53.7397 27.3955 53.6648 27.1981 53.599 26.9539L51.6678 27.4738C51.7615 27.8221 51.8803 28.1488 52.0295 28.4472L53.8184 27.5528ZM53.599 26.9539C53.528 26.69 53.466 26.4069 53.4138 26.104L51.4429 26.4438C51.5046 26.8018 51.5793 27.1453 51.6678 27.4738L53.599 26.9539ZM51.6924 25.5969C51.4782 25.8297 51.2256 26.0548 50.9312 26.2707L52.1139 27.8836C52.5031 27.5982 52.8544 27.2878 53.1643 26.951L51.6924 25.5969ZM50.9312 26.2707C50.6504 26.4767 50.3371 26.6578 49.9885 26.8128L50.8008 28.6404C51.2725 28.4307 51.7111 28.1789 52.1139 27.8836L50.9312 26.2707ZM49.9771 26.8179C49.6317 26.9766 49.244 27.1024 48.81 27.1912L49.2107 29.1506C49.7793 29.0343 50.3145 28.8639 50.8121 28.6352L49.9771 26.8179ZM48.7887 27.1958C48.3688 27.2912 47.9028 27.3418 47.3868 27.3418V29.3418C48.033 29.3418 48.6493 29.2785 49.232 29.146L48.7887 27.1958ZM47.3868 27.3418C46.5382 27.3418 45.7777 27.2193 45.0964 26.9857L44.4477 28.8776C45.3615 29.1909 46.3441 29.3418 47.3868 29.3418V27.3418ZM45.1006 26.9871C44.4203 26.7505 43.8552 26.4281 43.3904 26.0284L42.0863 27.5448C42.7609 28.125 43.5516 28.5659 44.4436 28.8761L45.1006 26.9871ZM43.3904 26.0284C42.9256 25.6287 42.5673 25.1595 42.3088 24.6147L40.5019 25.4722C40.8814 26.2718 41.4119 26.9648 42.0863 27.5448L43.3904 26.0284ZM42.3116 24.6206C42.0579 24.0769 41.9269 23.4817 41.9269 22.8218H39.9269C39.9269 23.7569 40.1149 24.6428 40.4992 25.4663L42.3116 24.6206ZM41.9269 22.8218C41.9269 21.9279 42.0999 21.1816 42.4168 20.5569L40.6332 19.6521C40.1525 20.5997 39.9269 21.6649 39.9269 22.8218H41.9269ZM42.4194 20.5517C42.7327 19.9251 43.2039 19.4023 43.8602 18.9803L42.7787 17.298C41.84 17.9014 41.1148 18.6888 40.6306 19.6573L42.4194 20.5517ZM43.8649 18.9773C44.4623 18.5885 45.2294 18.274 46.1909 18.0545L45.7458 16.1047C44.6109 16.3637 43.6121 16.7556 42.774 17.301L43.8649 18.9773ZM46.1986 18.0527C47.1664 17.8238 48.3001 17.7036 49.6085 17.7036V15.7036C48.1825 15.7036 46.8895 15.8341 45.7382 16.1064L46.1986 18.0527ZM49.6085 17.7036H52.2574V15.7036H49.6085V17.7036ZM53.2574 16.7036V15.6099H51.2574V16.7036H53.2574ZM53.2574 15.6099C53.2574 15.0717 53.1723 14.5551 52.9808 14.0764L51.1239 14.8191C51.2058 15.024 51.2574 15.2821 51.2574 15.6099H53.2574ZM52.9849 14.0868C52.7939 13.5932 52.5021 13.1617 52.1128 12.8048L50.7614 14.2791C50.919 14.4236 51.0374 14.5959 51.1198 14.8087L52.9849 14.0868ZM52.1142 12.8061C51.7044 12.4291 51.2103 12.1635 50.6616 11.9903L50.0593 13.8974C50.3765 13.9976 50.6002 14.1308 50.7601 14.2779L52.1142 12.8061ZM50.6919 12.0004C50.1392 11.8062 49.5266 11.7217 48.8736 11.7217V13.7217C49.36 13.7217 49.7386 13.7853 50.029 13.8873L50.6919 12.0004ZM48.8736 11.7217C48.2931 11.7217 47.745 11.7937 47.2497 11.964L47.8999 13.8554C48.1338 13.7749 48.4515 13.7217 48.8736 13.7217V11.7217ZM47.2765 11.9552C46.7969 12.1051 46.3575 12.3382 45.9974 12.6803L47.3749 14.1303C47.4705 14.0394 47.6235 13.9421 47.8731 13.8641L47.2765 11.9552ZM45.9995 12.6783C45.6797 12.9803 45.4425 13.3439 45.2884 13.7548L47.161 14.4571C47.212 14.3211 47.2824 14.2176 47.3728 14.1323L45.9995 12.6783ZM45.276 13.7897C45.1463 14.1788 45.088 14.5893 45.088 15.0117H47.088C47.088 14.7733 47.1208 14.58 47.1734 14.4222L45.276 13.7897ZM46.088 14.0117H41.337V16.0117H46.088V14.0117ZM42.337 15.0117C42.337 14.3762 42.4739 13.7788 42.7499 13.2085L40.9495 12.3374C40.5419 13.1798 40.337 14.075 40.337 15.0117H42.337ZM42.7441 13.2202C43.0267 12.655 43.4422 12.1453 44.0109 11.6923L42.7647 10.128C41.989 10.746 41.3791 11.4782 40.9553 12.3257L42.7441 13.2202ZM44.0174 11.6871C44.5663 11.2423 45.2603 10.874 46.1206 10.5975L45.5085 8.69348C44.4547 9.0322 43.5309 9.5071 42.7582 10.1332L44.0174 11.6871ZM46.1274 10.5953C46.9757 10.3159 47.9721 10.167 49.13 10.167V8.16699C47.8042 8.16699 46.5903 8.33711 45.5017 8.69571L46.1274 10.5953ZM49.13 10.167C50.1647 10.167 51.108 10.2936 51.9656 10.5387L52.5151 8.61562C51.4586 8.31377 50.3283 8.16699 49.13 8.16699V10.167ZM51.9686 10.5395C52.833 10.7836 53.5541 11.1369 54.1484 11.5874L55.3566 9.99362C54.5382 9.37322 53.5845 8.91759 52.5121 8.61477L51.9686 10.5395ZM54.1484 11.5874C54.7258 12.0251 55.1788 12.5783 55.5109 13.2614L57.3096 12.387C56.8442 11.4295 56.1921 10.6269 55.3566 9.99362L54.1484 11.5874ZM55.5133 13.2664C55.8327 13.9143 56.0084 14.6979 56.0084 15.644H58.0084C58.0084 14.4483 57.7853 13.352 57.3072 12.3821L55.5133 13.2664ZM56.0084 15.644V23.5737H58.0084V15.644H56.0084ZM56.0084 23.5737C56.0084 24.6004 56.0728 25.4897 56.2145 26.2242L58.1783 25.8452C58.0694 25.2808 58.0084 24.5294 58.0084 23.5737H56.0084ZM56.2145 26.2242C56.3533 26.9433 56.5615 27.5957 56.8532 28.1653L58.6333 27.2536C58.4466 26.889 58.2901 26.4248 58.1783 25.8452L56.2145 26.2242ZM56.7433 27.7095V28H58.7433V27.7095H56.7433ZM57.7433 27H52.9239V29H57.7433V27ZM48.3951 25.6675C48.9531 25.6675 49.4884 25.601 49.9958 25.4601L49.4605 23.5331C49.1475 23.62 48.7942 23.6675 48.3951 23.6675V25.6675ZM49.9958 25.4601C50.4715 25.3279 50.9155 25.1521 51.322 24.9278L50.3559 23.1767C50.1017 23.3169 49.805 23.4374 49.4605 23.5331L49.9958 25.4601ZM51.322 24.9278C51.7171 24.7099 52.0737 24.4558 52.3831 24.1611L51.0038 22.7129C50.8347 22.8739 50.6216 23.03 50.3559 23.1767L51.322 24.9278ZM52.4006 24.1441C52.689 23.8557 52.9362 23.547 53.1257 23.2154L51.3892 22.2231C51.3052 22.37 51.1765 22.5398 50.9864 22.7299L52.4006 24.1441ZM53.2574 22.7192V19.5405H51.2574V22.7192H53.2574ZM52.2574 18.5405H49.8307V20.5405H52.2574V18.5405ZM49.8307 18.5405C49.0288 18.5405 48.2996 18.6201 47.6617 18.8004L48.2056 20.725C48.616 20.609 49.1515 20.5405 49.8307 20.5405V18.5405ZM47.6813 18.7951C47.0669 18.9554 46.5097 19.1965 46.0476 19.5471L47.2563 21.1404C47.4551 20.9897 47.7523 20.8435 48.1861 20.7303L47.6813 18.7951ZM46.0306 19.5603C45.58 19.9176 45.2299 20.3596 45.0009 20.8829L46.8332 21.6845C46.9233 21.4786 47.0631 21.294 47.2733 21.1272L46.0306 19.5603ZM45.0057 20.8721C44.7828 21.3657 44.6778 21.8949 44.6778 22.4458H46.6778C46.6778 22.1536 46.7323 21.9081 46.8285 21.6953L45.0057 20.8721ZM44.6778 22.4458C44.6778 22.8935 44.7555 23.3283 44.9203 23.74L46.7772 22.9973C46.7141 22.8394 46.6778 22.6589 46.6778 22.4458H44.6778ZM44.9397 23.7853C45.1255 24.1908 45.391 24.5424 45.7309 24.8313L47.0262 23.3074C46.9103 23.2089 46.8226 23.0934 46.7578 22.952L44.9397 23.7853ZM45.7538 24.8502C46.0868 25.1166 46.4721 25.315 46.8899 25.459L47.5419 23.5683C47.299 23.4845 47.126 23.3867 47.0032 23.2885L45.7538 24.8502ZM46.9286 25.4715C47.3831 25.6079 47.8762 25.6675 48.3951 25.6675V23.6675C48.0253 23.6675 47.7323 23.6246 47.5033 23.5558L46.9286 25.4715ZM72.8069 7.03076V8.03076H73.8069V7.03076H72.8069ZM65.1336 7.03076V6.03076H64.1336V7.03076H65.1336ZM65.1336 28V29H66.1336V28H65.1336ZM60.3143 28H59.3143V29H60.3143V28ZM60.3143 7.03076H61.3143V6.03076H60.3143V7.03076ZM52.7435 7.03076H51.7435V8.03076H52.7435V7.03076ZM52.7435 3.11719V2.11719H51.7435V3.11719H52.7435ZM72.8069 3.11719H73.8069V2.11719H72.8069V3.11719ZM72.8069 6.03076H65.1336V8.03076H72.8069V6.03076ZM64.1336 7.03076V28H66.1336V7.03076H64.1336ZM65.1336 27H60.3143V29H65.1336V27ZM61.3143 28V7.03076H59.3143V28H61.3143ZM60.3143 6.03076H52.7435V8.03076H60.3143V6.03076ZM53.7435 7.03076V3.11719H51.7435V7.03076H53.7435ZM52.7435 4.11719H72.8069V2.11719H52.7435V4.11719ZM71.8069 3.11719V7.03076H73.8069V3.11719H71.8069ZM67.9438 14.8579L68.8906 15.1798L68.8916 15.177L67.9438 14.8579ZM69.6528 11.8672L70.3991 12.5328L70.4041 12.5271L69.6528 11.8672ZM72.3701 9.88477L71.9658 8.97015L71.9622 8.97176L72.3701 9.88477ZM82.5386 11.8672L83.2899 11.2072L83.2849 11.2016L82.5386 11.8672ZM84.2305 14.8579L83.2827 15.177L83.2837 15.1798L84.2305 14.8579ZM84.2305 22.7021L85.1772 23.0241L85.1782 23.0212L84.2305 22.7021ZM82.5386 25.6758L83.2899 26.3357L82.5386 25.6758ZM79.8042 27.6582L80.2005 28.5764L80.2086 28.5728L79.8042 27.6582ZM72.3872 27.6582L71.9828 28.5729L71.9944 28.5778L72.3872 27.6582ZM69.6528 25.6758L70.4042 25.0158L70.3991 25.0102L69.6528 25.6758ZM67.9438 22.7021L66.9961 23.0212L66.9971 23.0241L67.9438 22.7021ZM72.3359 21.1299L71.3586 21.3416L71.3594 21.3451L72.3359 21.1299ZM73.0366 22.8901L73.8857 22.3618L73.8803 22.3533L73.0366 22.8901ZM74.2671 24.1035L73.7583 24.9645L73.7668 24.9694L74.2671 24.1035ZM79.1377 22.8901L79.9868 23.4184L79.99 23.4132L79.1377 22.8901ZM79.8213 21.1299L80.7979 21.3451L80.7986 21.3416L79.8213 21.1299ZM79.1377 14.6699L79.9952 14.1554L79.991 14.1485L79.9868 14.1416L79.1377 14.6699ZM74.2671 13.4565L73.7584 12.5956L74.2671 13.4565ZM68.3628 18.5835C68.3628 17.3359 68.5424 16.2041 68.8906 15.1798L66.9971 14.536C66.5706 15.7904 66.3628 17.1423 66.3628 18.5835H68.3628ZM68.8916 15.177C69.2391 14.1445 69.7436 13.2678 70.3991 12.5328L68.9065 11.2016C68.0582 12.1528 67.4233 13.2699 66.9961 14.5389L68.8916 15.177ZM70.4041 12.5271C71.0455 11.797 71.8323 11.2203 72.7781 10.7978L71.9622 8.97176C70.766 9.50623 69.7413 10.2512 68.9015 11.2072L70.4041 12.5271ZM72.7745 10.7994C73.7092 10.3861 74.8039 10.167 76.0786 10.167V8.16699C74.5734 8.16699 73.1958 8.42637 71.9658 8.97016L72.7745 10.7994ZM76.0786 10.167C77.3534 10.167 78.448 10.3861 79.3828 10.7994L80.1915 8.97016C78.9615 8.42637 77.5838 8.16699 76.0786 8.16699V10.167ZM79.3828 10.7994C80.341 11.223 81.1398 11.8012 81.7923 12.5328L83.2849 11.2016C82.4335 10.247 81.3979 9.50354 80.1915 8.97016L79.3828 10.7994ZM81.7873 12.5271C82.4335 13.2628 82.9341 14.1414 83.2827 15.177L85.1782 14.5389C84.7521 13.273 84.1248 12.1578 83.2899 11.2072L81.7873 12.5271ZM83.2837 15.1798C83.6319 16.2041 83.8115 17.3359 83.8115 18.5835H85.8115C85.8115 17.1423 85.6037 15.7904 85.1772 14.536L83.2837 15.1798ZM83.8115 18.5835V18.9424H85.8115V18.5835H83.8115ZM83.8115 18.9424C83.8115 20.2022 83.6317 21.3464 83.2827 22.3831L85.1782 23.0212C85.604 21.7564 85.8115 20.3941 85.8115 18.9424H83.8115ZM83.2837 22.3802C82.9355 23.4042 82.435 24.2785 81.7873 25.0158L83.2899 26.3357C84.1233 25.3869 84.7507 24.2787 85.1772 23.0241L83.2837 22.3802ZM81.7873 25.0158C81.1477 25.7439 80.3568 26.3205 79.3998 26.7436L80.2086 28.5728C81.4163 28.0389 82.4483 27.2938 83.2899 26.3357L81.7873 25.0158ZM79.4079 26.7401C78.4701 27.1448 77.3779 27.3589 76.1128 27.3589V29.3589C77.6048 29.3589 78.9736 29.1058 80.2005 28.5763L79.4079 26.7401ZM76.1128 27.3589C74.8353 27.3589 73.7304 27.1445 72.78 26.7386L71.9944 28.5778C73.2315 29.1062 74.6103 29.3589 76.1128 29.3589V27.3589ZM72.7916 26.7436C71.8346 26.3205 71.0437 25.7439 70.4041 25.0158L68.9015 26.3357C69.7431 27.2938 70.7751 28.0389 71.9829 28.5728L72.7916 26.7436ZM70.3991 25.0102C69.7421 24.2735 69.2377 23.4011 68.8906 22.3802L66.9971 23.0241C67.4247 24.2818 68.0597 25.3919 68.9065 26.3414L70.3991 25.0102ZM68.8916 22.3831C68.5426 21.3464 68.3628 20.2022 68.3628 18.9424H66.3628C66.3628 20.3941 66.5703 21.7564 66.9961 23.0212L68.8916 22.3831ZM68.3628 18.9424V18.5835H66.3628V18.9424H68.3628ZM71.1138 18.9424C71.1138 19.7808 71.1939 20.5815 71.3586 21.3416L73.3133 20.9181C73.1817 20.3111 73.1138 19.6535 73.1138 18.9424H71.1138ZM71.3594 21.3451C71.5287 22.1137 71.8021 22.8128 72.193 23.427L73.8803 22.3533C73.6331 21.9649 73.4394 21.4905 73.3125 20.9147L71.3594 21.3451ZM72.1876 23.4184C72.5883 24.0625 73.1133 24.5833 73.7584 24.9644L74.7758 23.2426C74.4183 23.0313 74.1229 22.7431 73.8857 22.3618L72.1876 23.4184ZM73.7668 24.9694C74.4609 25.3704 75.2566 25.5479 76.1128 25.5479V23.5479C75.5335 23.5479 75.0987 23.4291 74.7674 23.2377L73.7668 24.9694ZM76.1128 25.5479C76.9519 25.5479 77.7331 25.3679 78.416 24.9644L77.3985 23.2426C77.0787 23.4316 76.6636 23.5479 76.1128 23.5479V25.5479ZM78.416 24.9644C79.061 24.5833 79.586 24.0625 79.9868 23.4184L78.2886 22.3618C78.0514 22.7431 77.756 23.0313 77.3985 23.2426L78.416 24.9644ZM79.99 23.4132C80.3649 22.8023 80.6298 22.108 80.7979 21.3451L78.8447 20.9147C78.7166 21.4962 78.5257 21.9754 78.2854 22.3671L79.99 23.4132ZM80.7986 21.3416C80.9633 20.5815 81.0435 19.7808 81.0435 18.9424H79.0435C79.0435 19.6535 78.9755 20.3111 78.844 20.9181L80.7986 21.3416ZM81.0435 18.9424V18.5835H79.0435V18.9424H81.0435ZM81.0435 18.5835C81.0435 17.7658 80.9629 16.9811 80.7979 16.2321L78.8447 16.6624C78.9759 17.2578 79.0435 17.8973 79.0435 18.5835H81.0435ZM80.7979 16.2321C80.6299 15.47 80.3661 14.7736 79.9952 14.1554L78.2802 15.1844C78.5245 15.5916 78.7164 16.0801 78.8447 16.6624L80.7979 16.2321ZM79.9868 14.1416C79.586 13.4975 79.061 12.9768 78.416 12.5956L77.3985 14.3175C77.756 14.5287 78.0514 14.8169 78.2886 15.1982L79.9868 14.1416ZM78.416 12.5956C77.7285 12.1894 76.9339 12.0122 76.0786 12.0122V14.0122C76.6588 14.0122 77.0834 14.1313 77.3985 14.3175L78.416 12.5956ZM76.0786 12.0122C75.2314 12.0122 74.4435 12.1907 73.7584 12.5956L74.7758 14.3175C75.0932 14.1299 75.5131 14.0122 76.0786 14.0122V12.0122ZM73.7584 12.5956C73.1133 12.9768 72.5883 13.4975 72.1876 14.1416L73.8857 15.1982C74.1229 14.8169 74.4183 14.5287 74.7758 14.3175L73.7584 12.5956ZM72.1876 14.1416C71.8008 14.7632 71.5285 15.4643 71.3594 16.2321L73.3125 16.6624C73.4396 16.0858 73.6344 15.6021 73.8857 15.1982L72.1876 14.1416ZM71.3594 16.2321C71.1943 16.9811 71.1138 17.7658 71.1138 18.5835H73.1138C73.1138 17.8973 73.1813 17.2578 73.3125 16.6624L71.3594 16.2321ZM71.1138 18.5835V18.9424H73.1138V18.5835H71.1138ZM81.3156 14.7725L80.3537 14.499L80.3513 14.5077L81.3156 14.7725ZM82.7512 11.7817L81.9525 11.18L82.7512 11.7817ZM85.0241 9.85059L84.5724 8.95842L84.5678 8.96077L85.0241 9.85059ZM90.6467 9.69678L90.2108 10.5968L90.2192 10.6008L90.2276 10.6047L90.6467 9.69678ZM92.612 11.1665L91.8661 11.8325L93.612 13.788V11.1665H92.612ZM92.612 1.75V0.75H91.612V1.75H92.612ZM97.3801 1.75H98.3801V0.75H97.3801V1.75ZM97.3801 28V29H98.3801V28H97.3801ZM93.0905 28L92.0981 28.123L92.2068 29H93.0905V28ZM92.8513 26.0688L93.8437 25.9459L93.5544 23.611L92.074 25.4396L92.8513 26.0688ZM85.0241 27.6411L84.55 28.5216L84.5567 28.5252L84.5635 28.5287L85.0241 27.6411ZM82.7683 25.6758L83.5722 25.0811L83.5669 25.074L82.7683 25.6758ZM81.3327 22.7192L80.3716 22.9952L80.3723 22.9978L81.3327 22.7192ZM85.7761 21.147L84.793 21.3303L84.7948 21.3399L84.7968 21.3496L85.7761 21.147ZM86.4255 22.873L87.2865 22.3643L87.2812 22.3556L86.4255 22.873ZM87.5705 24.0522L87.0499 24.906L87.5705 24.0522ZM91.3132 23.9497L90.7706 23.1096L90.7626 23.1149L91.3132 23.9497ZM92.612 22.4971L93.4998 22.9574L93.612 22.7409V22.4971H92.612ZM92.612 15.0117H93.612V14.7718L93.5032 14.558L92.612 15.0117ZM91.3303 13.5591L90.7797 14.3939L90.7859 14.398L90.7922 14.402L91.3303 13.5591ZM87.5876 13.4736L88.1082 14.3274L88.114 14.3239L87.5876 13.4736ZM86.4426 14.6528L85.5816 14.1441L85.5767 14.1526L86.4426 14.6528ZM85.7932 16.4473L86.7731 16.6466L86.7737 16.6434L85.7932 16.4473ZM81.8371 18.6177C81.8371 17.2916 81.9881 16.1004 82.28 15.0372L80.3513 14.5077C80.0051 15.7688 79.8371 17.141 79.8371 18.6177H81.8371ZM82.2775 15.0459C82.5795 13.9837 83.0083 13.1023 83.5499 12.3835L81.9525 11.18C81.2408 12.1246 80.7125 13.237 80.3537 14.499L82.2775 15.0459ZM83.5499 12.3835C84.0896 11.6671 84.732 11.1242 85.4804 10.7404L84.5678 8.96077C83.5389 9.48839 82.666 10.2329 81.9525 11.18L83.5499 12.3835ZM85.4758 10.7427C86.2173 10.3673 87.0843 10.167 88.1003 10.167V8.16699C86.8148 8.16699 85.631 8.42241 84.5724 8.95843L85.4758 10.7427ZM88.1003 10.167C88.9469 10.167 89.6415 10.321 90.2108 10.5968L91.0826 8.7968C90.1935 8.36615 89.1906 8.16699 88.1003 8.16699V10.167ZM90.2276 10.6047C90.8378 10.8863 91.3831 11.2916 91.8661 11.8325L93.358 10.5005C92.7016 9.76535 91.9367 9.1908 91.0657 8.78882L90.2276 10.6047ZM93.612 11.1665V1.75H91.612V11.1665H93.612ZM92.612 2.75H97.3801V0.75H92.612V2.75ZM96.3801 1.75V28H98.3801V1.75H96.3801ZM97.3801 27H93.0905V29H97.3801V27ZM94.0829 27.877L93.8437 25.9459L91.8589 26.1918L92.0981 28.123L94.0829 27.877ZM92.074 25.4396C91.5773 26.0533 91.0027 26.5198 90.3481 26.8518L91.2529 28.6355C92.1705 28.17 92.9632 27.5199 93.6285 26.698L92.074 25.4396ZM90.3481 26.8518C89.7249 27.168 88.9733 27.3418 88.0661 27.3418V29.3418C89.2325 29.3418 90.3038 29.1169 91.2529 28.6355L90.3481 26.8518ZM88.0661 27.3418C87.0803 27.3418 86.2271 27.1388 85.4848 26.7535L84.5635 28.5287C85.6212 29.0777 86.7961 29.3418 88.0661 29.3418V27.3418ZM85.4982 26.7606C84.7425 26.3537 84.1021 25.7975 83.5722 25.0811L81.9643 26.2705C82.6649 27.2175 83.5284 27.9715 84.55 28.5216L85.4982 26.7606ZM83.5669 25.074C83.0229 24.3519 82.5944 23.4794 82.2931 22.4407L80.3723 22.9978C80.7319 24.2377 81.2604 25.3363 81.9696 26.2775L83.5669 25.074ZM82.2939 22.4433C81.9922 21.3925 81.8371 20.2389 81.8371 18.9766H79.8371C79.8371 20.403 80.0124 21.7445 80.3716 22.9952L82.2939 22.4433ZM81.8371 18.9766V18.6177H79.8371V18.9766H81.8371ZM84.5881 18.9766C84.5881 19.8048 84.6551 20.5903 84.793 21.3303L86.7591 20.9637C86.6465 20.3593 86.5881 19.6978 86.5881 18.9766H84.5881ZM84.7968 21.3496C84.9525 22.1022 85.2053 22.7878 85.5698 23.3905L87.2812 22.3556C87.0532 21.9785 86.8731 21.5134 86.7553 20.9444L84.7968 21.3496ZM85.5646 23.3818C85.9387 24.0149 86.4338 24.5304 87.0499 24.906L88.0911 23.1984C87.773 23.0045 87.5047 22.7338 87.2864 22.3643L85.5646 23.3818ZM87.0499 24.906C87.7061 25.3062 88.4656 25.4795 89.2795 25.4795V23.4795C88.749 23.4795 88.3691 23.368 88.0911 23.1984L87.0499 24.906ZM89.2795 25.4795C90.2414 25.4795 91.1249 25.2718 91.8638 24.7845L90.7626 23.1149C90.4305 23.3339 89.9583 23.4795 89.2795 23.4795V25.4795ZM91.8557 24.7897C92.5582 24.3361 93.106 23.7168 93.4998 22.9574L91.7243 22.0368C91.48 22.5079 91.1619 22.857 90.7707 23.1097L91.8557 24.7897ZM93.612 22.4971V15.0117H91.612V22.4971H93.612ZM93.5032 14.558C93.1121 13.7899 92.5698 13.1639 91.8683 12.7162L90.7922 14.402C91.1617 14.6379 91.4739 14.9802 91.7209 15.4654L93.5032 14.558ZM91.8809 12.7243C91.1441 12.2383 90.2674 12.0293 89.3137 12.0293V14.0293C89.9778 14.0293 90.4455 14.1734 90.7797 14.3939L91.8809 12.7243ZM89.3137 12.0293C88.492 12.0293 87.7263 12.2117 87.0612 12.6234L88.114 14.3239C88.406 14.1431 88.791 14.0293 89.3137 14.0293V12.0293ZM87.067 12.6198C86.4509 12.9955 85.9558 13.511 85.5817 14.1441L87.3035 15.1616C87.5218 14.7921 87.7901 14.5214 88.1082 14.3274L87.067 12.6198ZM85.5767 14.1526C85.2172 14.7748 84.967 15.4791 84.8126 16.2511L86.7737 16.6434C86.8928 16.0483 87.0755 15.5563 87.3084 15.1531L85.5767 14.1526ZM84.8132 16.248C84.6616 16.9935 84.5881 17.7844 84.5881 18.6177H86.5881C86.5881 17.9014 86.6513 17.2454 86.7731 16.6466L84.8132 16.248ZM84.5881 18.6177V18.9766H86.5881V18.6177H84.5881ZM106.206 28L105.312 28.4472L105.588 29H106.206V28ZM105.71 26.2739L106.696 26.104L106.35 24.1011L104.974 25.5969L105.71 26.2739ZM103.677 27.7266L103.27 26.8127L103.259 26.8179L103.677 27.7266ZM102.292 28.1709L102.092 27.1912L102.081 27.1934L102.071 27.1958L102.292 28.1709ZM98.0541 27.9316L97.7256 28.8761L97.7298 28.8776L98.0541 27.9316ZM96.0204 26.7866L95.3684 27.5448L96.0204 26.7866ZM94.6874 25.0435L93.7812 25.4664L93.784 25.4722L94.6874 25.0435ZM94.807 20.1045L95.6989 20.5569L95.7015 20.5517L94.807 20.1045ZM96.6015 18.1392L97.1422 18.9804L97.1469 18.9773L96.6015 18.1392ZM99.2504 17.0796L99.4729 18.0545L99.4806 18.0527L99.2504 17.0796ZM105.539 16.7036V17.7036H106.539V16.7036H105.539ZM105.334 14.4478L104.402 14.8088L104.406 14.8191L105.334 14.4478ZM104.719 13.542L104.042 14.2779L104.043 14.2791L104.719 13.542ZM103.642 12.9438L103.311 13.8873L103.326 13.8926L103.341 13.8974L103.642 12.9438ZM100.857 12.9097L101.155 13.8641L101.169 13.8599L101.182 13.8554L100.857 12.9097ZM99.9682 13.4053L100.655 14.1323L100.657 14.1303L99.9682 13.4053ZM99.5067 14.106L98.5704 13.7548L98.5639 13.7722L98.5581 13.7897L99.5067 14.106ZM99.37 15.0117V16.0117H100.37V15.0117H99.37ZM94.619 15.0117H93.619V16.0117H94.619V15.0117ZM95.1317 12.7729L94.2372 12.3257L94.2316 12.3374L95.1317 12.7729ZM96.6698 10.9102L97.2929 11.6923L97.2994 11.6871L96.6698 10.9102ZM99.0966 9.64551L99.4026 10.5976L99.4095 10.5953L99.0966 9.64551ZM105.522 9.57715L105.248 10.5387L105.251 10.5395L105.522 9.57715ZM108.035 10.7905L108.639 9.99362L108.035 10.7905ZM109.692 12.8242L108.793 13.2614L108.795 13.2664L109.692 12.8242ZM111.025 27.7095H112.025V27.4683L111.915 27.2536L111.025 27.7095ZM111.025 28V29H112.025V28H111.025ZM104.121 24.0522L103.638 23.1767L104.121 24.0522ZM104.975 23.437L105.665 24.1611L105.674 24.1527L105.683 24.1441L104.975 23.437ZM105.539 22.7192L106.408 23.2154L106.539 22.9848V22.7192H105.539ZM105.539 19.5405H106.539V18.5405H105.539V19.5405ZM101.216 19.7627L101.468 20.7303L101.478 20.7278L101.488 20.725L101.216 19.7627ZM99.934 20.3438L99.3296 19.5471L99.321 19.5536L99.3126 19.5603L99.934 20.3438ZM99.1991 21.2837L100.111 21.6953L100.115 21.6845L99.1991 21.2837ZM99.1308 23.3687L98.2023 23.74L98.2114 23.7629L98.2217 23.7853L99.1308 23.3687ZM99.6605 24.0693L99.0129 24.8313L99.0242 24.8409L99.0359 24.8502L99.6605 24.0693ZM100.498 24.5137L100.172 25.459L100.191 25.4657L100.211 25.4715L100.498 24.5137ZM107.1 27.5528C107.022 27.3955 106.947 27.1981 106.881 26.9539L104.95 27.4738C105.044 27.8221 105.162 28.1488 105.312 28.4472L107.1 27.5528ZM106.881 26.9539C106.81 26.69 106.748 26.4069 106.696 26.104L104.725 26.4438C104.787 26.8018 104.861 27.1453 104.95 27.4738L106.881 26.9539ZM104.974 25.5969C104.76 25.8297 104.508 26.0548 104.213 26.2707L105.396 27.8836C105.785 27.5982 106.136 27.2878 106.446 26.951L104.974 25.5969ZM104.213 26.2707C103.932 26.4767 103.619 26.6578 103.271 26.8128L104.083 28.6404C104.555 28.4307 104.993 28.1789 105.396 27.8836L104.213 26.2707ZM103.259 26.8179C102.914 26.9766 102.526 27.1024 102.092 27.1912L102.493 29.1506C103.061 29.0343 103.596 28.8639 104.094 28.6352L103.259 26.8179ZM102.071 27.1958C101.651 27.2912 101.185 27.3418 100.669 27.3418V29.3418C101.315 29.3418 101.931 29.2785 102.514 29.146L102.071 27.1958ZM100.669 27.3418C99.8203 27.3418 99.0597 27.2193 98.3784 26.9857L97.7298 28.8776C98.6436 29.1909 99.6261 29.3418 100.669 29.3418V27.3418ZM98.3826 26.9871C97.7023 26.7505 97.1372 26.4281 96.6724 26.0284L95.3684 27.5448C96.043 28.125 96.8336 28.5659 97.7256 28.8761L98.3826 26.9871ZM96.6724 26.0284C96.2076 25.6287 95.8494 25.1595 95.5908 24.6147L93.784 25.4722C94.1635 26.2718 94.6939 26.9648 95.3684 27.5448L96.6724 26.0284ZM95.5936 24.6206C95.3399 24.0769 95.2089 23.4817 95.2089 22.8218H93.2089C93.2089 23.7569 93.3969 24.6428 93.7812 25.4663L95.5936 24.6206ZM95.2089 22.8218C95.2089 21.9279 95.382 21.1816 95.6989 20.5569L93.9152 19.6521C93.4346 20.5997 93.2089 21.6649 93.2089 22.8218H95.2089ZM95.7015 20.5517C96.0147 19.9251 96.4859 19.4023 97.1422 18.9803L96.0607 17.298C95.122 17.9014 94.3968 18.6888 93.9126 19.6573L95.7015 20.5517ZM97.1469 18.9773C97.7444 18.5885 98.5115 18.274 99.4729 18.0545L99.0279 16.1047C97.893 16.3637 96.8941 16.7556 96.056 17.301L97.1469 18.9773ZM99.4806 18.0527C100.448 17.8238 101.582 17.7036 102.891 17.7036V15.7036C101.465 15.7036 100.171 15.8341 99.0202 16.1064L99.4806 18.0527ZM102.891 17.7036H105.539V15.7036H102.891V17.7036ZM106.539 16.7036V15.6099H104.539V16.7036H106.539ZM106.539 15.6099C106.539 15.0717 106.454 14.5551 106.263 14.0764L104.406 14.8191C104.488 15.024 104.539 15.2821 104.539 15.6099H106.539ZM106.267 14.0868C106.076 13.5932 105.784 13.1617 105.395 12.8048L104.043 14.2791C104.201 14.4236 104.319 14.5959 104.402 14.8087L106.267 14.0868ZM105.396 12.8061C104.986 12.4291 104.492 12.1635 103.944 11.9903L103.341 13.8974C103.659 13.9976 103.882 14.1308 104.042 14.2779L105.396 12.8061ZM103.974 12.0004C103.421 11.8062 102.809 11.7217 102.156 11.7217V13.7217C102.642 13.7217 103.021 13.7853 103.311 13.8873L103.974 12.0004ZM102.156 11.7217C101.575 11.7217 101.027 11.7937 100.532 11.964L101.182 13.8554C101.416 13.7749 101.734 13.7217 102.156 13.7217V11.7217ZM100.559 11.9552C100.079 12.1051 99.6395 12.3382 99.2794 12.6803L100.657 14.1303C100.753 14.0394 100.906 13.9421 101.155 13.8641L100.559 11.9552ZM99.2815 12.6783C98.9617 12.9803 98.7245 13.3439 98.5704 13.7548L100.443 14.4571C100.494 14.3211 100.564 14.2176 100.655 14.1323L99.2815 12.6783ZM98.5581 13.7897C98.4284 14.1788 98.37 14.5893 98.37 15.0117H100.37C100.37 14.7733 100.403 14.58 100.455 14.4222L98.5581 13.7897ZM99.37 14.0117H94.619V16.0117H99.37V14.0117ZM95.619 15.0117C95.619 14.3762 95.7559 13.7788 96.0319 13.2085L94.2316 12.3374C93.824 13.1798 93.619 14.075 93.619 15.0117H95.619ZM96.0262 13.2202C96.3088 12.655 96.7243 12.1453 97.2929 11.6923L96.0467 10.128C95.271 10.746 94.6611 11.4782 94.2373 12.3257L96.0262 13.2202ZM97.2994 11.6871C97.8484 11.2423 98.5423 10.874 99.4026 10.5975L98.7906 8.69348C97.7368 9.0322 96.8129 9.5071 96.0402 10.1332L97.2994 11.6871ZM99.4095 10.5953C100.258 10.3159 101.254 10.167 102.412 10.167V8.16699C101.086 8.16699 99.8723 8.33711 98.7837 8.69571L99.4095 10.5953ZM102.412 10.167C103.447 10.167 104.39 10.2936 105.248 10.5387L105.797 8.61562C104.741 8.31377 103.61 8.16699 102.412 8.16699V10.167ZM105.251 10.5395C106.115 10.7836 106.836 11.1369 107.43 11.5874L108.639 9.99362C107.82 9.37322 106.867 8.91759 105.794 8.61477L105.251 10.5395ZM107.43 11.5874C108.008 12.0251 108.461 12.5783 108.793 13.2614L110.592 12.387C110.126 11.4295 109.474 10.6269 108.639 9.99362L107.43 11.5874ZM108.795 13.2664C109.115 13.9143 109.29 14.6979 109.29 15.644H111.29C111.29 14.4483 111.067 13.352 110.589 12.3821L108.795 13.2664ZM109.29 15.644V23.5737H111.29V15.644H109.29ZM109.29 23.5737C109.29 24.6004 109.355 25.4897 109.497 26.2242L111.46 25.8452C111.351 25.2808 111.29 24.5294 111.29 23.5737H109.29ZM109.497 26.2242C109.635 26.9433 109.843 27.5957 110.135 28.1653L111.915 27.2536C111.729 26.889 111.572 26.4248 111.46 25.8452L109.497 26.2242ZM110.025 27.7095V28H112.025V27.7095H110.025ZM111.025 27H106.206V29H111.025V27ZM101.677 25.6675C102.235 25.6675 102.77 25.601 103.278 25.4601L102.743 23.5331C102.43 23.62 102.076 23.6675 101.677 23.6675V25.6675ZM103.278 25.4601C103.754 25.3279 104.197 25.1521 104.604 24.9278L103.638 23.1767C103.384 23.3169 103.087 23.4374 102.743 23.5331L103.278 25.4601ZM104.604 24.9278C104.999 24.7099 105.356 24.4558 105.665 24.1611L104.286 22.7129C104.117 22.8739 103.904 23.03 103.638 23.1767L104.604 24.9278ZM105.683 24.1441C105.971 23.8557 106.218 23.547 106.408 23.2154L104.671 22.2231C104.587 22.37 104.458 22.5398 104.268 22.7299L105.683 24.1441ZM106.539 22.7192V19.5405H104.539V22.7192H106.539ZM105.539 18.5405H103.113V20.5405H105.539V18.5405ZM103.113 18.5405C102.311 18.5405 101.582 18.6201 100.944 18.8004L101.488 20.725C101.898 20.609 102.433 20.5405 103.113 20.5405V18.5405ZM100.963 18.7951C100.349 18.9554 99.7917 19.1965 99.3296 19.5471L100.538 21.1404C100.737 20.9897 101.034 20.8435 101.468 20.7303L100.963 18.7951ZM99.3126 19.5603C98.862 19.9176 98.5119 20.3596 98.283 20.8829L100.115 21.6845C100.205 21.4786 100.345 21.294 100.555 21.1272L99.3126 19.5603ZM98.2877 20.8721C98.0649 21.3657 97.9599 21.8949 97.9599 22.4458H99.9599C99.9599 22.1536 100.014 21.9081 100.11 21.6953L98.2877 20.8721ZM97.9599 22.4458C97.9599 22.8935 98.0376 23.3283 98.2023 23.74L100.059 22.9973C99.9961 22.8394 99.9599 22.6589 99.9599 22.4458H97.9599ZM98.2217 23.7853C98.4075 24.1908 98.6731 24.5424 99.0129 24.8313L100.308 23.3074C100.192 23.2089 100.105 23.0934 100.04 22.952L98.2217 23.7853ZM99.0359 24.8502C99.3688 25.1166 99.7541 25.315 100.172 25.459L100.824 23.5683C100.581 23.4845 100.408 23.3867 100.285 23.2885L99.0359 24.8502ZM100.211 25.4715C100.665 25.6079 101.158 25.6675 101.677 25.6675V23.6675C101.307 23.6675 101.014 23.6246 100.785 23.5558L100.211 25.4715Z" fill="black" mask="url(#path-1-outside-1_14_19)"/>
</svg>
